<svg width="1386" height="1032" viewBox="0 0 1386 1032" fill="none" xmlns="http://www.w3.org/2000/svg">
<rect width="1386" height="1032" fill="white"/>
<path d="M982.422 695.89H1060.19V695.84H1103.01V523.867H1017.38V610.174H982.432C934.72 610.174 896.069 571.559 896.069 523.887C896.069 476.216 934.72 437.601 982.432 437.601V351.884C887.347 351.884 810.286 428.874 810.286 523.877C810.286 618.88 887.337 695.89 982.422 695.89Z" fill="black"/>
<path fill-rule="evenodd" clip-rule="evenodd" d="M791.951 695.84C696.876 695.84 619.835 618.86 619.835 523.867C619.835 428.874 696.886 351.894 791.951 351.894V437.61C744.259 437.61 705.618 476.215 705.618 523.867C705.618 571.518 744.259 610.123 791.951 610.123V695.84Z" fill="black"/>
<path d="M423.383 351.903H345.612V351.953H302.791V523.927H388.424V437.62H423.373C471.086 437.62 509.736 476.235 509.736 523.907C509.736 571.578 471.086 610.193 423.373 610.193V695.91C518.459 695.91 595.519 618.92 595.519 523.917C595.519 428.913 518.469 351.903 423.383 351.903Z" fill="black"/>
</svg>
